<svg width="35" height="41" viewBox="0 0 35 41" fill="none" xmlns="http://www.w3.org/2000/svg">
<path d="M34.2665 31.9514C33.6381 33.3839 32.8943 34.7024 32.0325 35.9147C30.8578 37.5673 29.8959 38.7112 29.1547 39.3464C28.0056 40.3891 26.7745 40.9231 25.4562 40.9535C24.5097 40.9535 23.3684 40.6877 22.0398 40.1487C20.7068 39.6121 19.4819 39.3464 18.3618 39.3464C17.1871 39.3464 15.9272 39.6121 14.5797 40.1487C13.23 40.6877 12.1428 40.9686 11.3115 40.9965C10.0473 41.0496 8.78719 40.5005 7.52939 39.3464C6.72659 38.6555 5.72245 37.4711 4.51953 35.7932C3.2289 34.0014 2.16781 31.9236 1.33655 29.5548C0.446285 26.9962 0 24.5185 0 22.1198C0 19.3722 0.601715 17.0023 1.80694 15.0164C2.75414 13.4213 4.01425 12.163 5.59138 11.2392C7.16851 10.3155 8.8726 9.84477 10.7078 9.81465C11.7119 9.81465 13.0287 10.1211 14.6651 10.7235C16.2968 11.3278 17.3446 11.6343 17.8039 11.6343C18.1474 11.6343 19.3113 11.2759 21.2844 10.5615C23.1504 9.89893 24.7252 9.62459 26.0153 9.73265C29.5112 10.011 32.1376 11.3708 33.8843 13.8206C30.7577 15.6899 29.2111 18.308 29.2419 21.6666C29.2701 24.2827 30.2319 26.4596 32.1222 28.1882C32.9789 28.9904 33.9356 29.6105 35 30.0508C34.7692 30.7114 34.5255 31.3441 34.2665 31.9514ZM26.2487 0.820234C26.2487 2.8707 25.4895 4.78522 23.9763 6.55727C22.1501 8.6639 19.9412 9.88121 17.5459 9.68913C17.5154 9.44313 17.4977 9.18423 17.4977 8.91217C17.4977 6.94373 18.3662 4.8371 19.9084 3.11464C20.6784 2.24254 21.6576 1.51739 22.8452 0.938926C24.0301 0.369094 25.151 0.0539646 26.2051 0C26.2359 0.274116 26.2487 0.548248 26.2487 0.820207V0.820234Z" fill="#B4B4B4"/>
</svg>
